<svg xmlns="http://www.w3.org/2000/svg" style="display:none">

  <!-- =========================
       DEVICE MANAGEMENT
  ========================== -->

  <symbol id="device-chip" viewBox="0 0 24 24">
    <rect x="6" y="6" width="12" height="12" rx="2"/>
    <path d="M9 1v4M15 1v4M9 19v4M15 19v4M1 9h4M1 15h4M19 9h4M19 15h4"/>
  </symbol>

  <symbol id="device-swap" viewBox="0 0 24 24">
    <path d="M3 7h13l-3-3"/>
    <path d="M21 17H8l3 3"/>
  </symbol>

  <!-- =========================
       HEALTH MONITORING
  ========================== -->

  <symbol id="health-heart" viewBox="0 0 24 24">
    <path d="M20.8 4.6a5.5 5.5 0 0 0-7.8 0L12 5.6l-1-1a5.5 5.5 0 0 0-7.8 7.8l8.8 8.6 8.8-8.6a5.5 5.5 0 0 0 0-7.8z"/>
  </symbol>

  <symbol id="health-pulse" viewBox="0 0 24 24">
    <path d="M3 12h4l2-5 4 10 2-5h4"/>
  </symbol>

  <!-- =========================
       SUPPORT / ESCALATION
  ========================== -->

  <symbol id="support-escalate" viewBox="0 0 24 24">
    <path d="M7 17l10-10"/>
    <path d="M10 7h7v7"/>
  </symbol>

  <symbol id="support-lifebuoy" viewBox="0 0 24 24">
    <circle cx="12" cy="12" r="9"/>
    <circle cx="12" cy="12" r="3"/>
    <path d="M12 3v6M12 15v6M3 12h6M15 12h6"/>
  </symbol>

  <!-- =========================
       DEPLOYMENT
  ========================== -->

  <symbol id="deploy-box" viewBox="0 0 24 24">
    <path d="M12 2l9 5-9 5-9-5 9-5z"/>
    <path d="M3 7v10l9 5 9-5V7"/>
  </symbol>

  <symbol id="deploy-checklist" viewBox="0 0 24 24">
    <path d="M4 6h12"/>
    <path d="M4 12h12"/>
    <path d="M4 18h12"/>
    <path d="M18 6l2 2 4-4"/>
  </symbol>

  <!-- =========================
       DISCOVERY
  ========================== -->

  <symbol id="discovery-radar" viewBox="0 0 24 24">
    <circle cx="12" cy="12" r="9"/>
    <path d="M12 12l6-6"/>
    <path d="M12 3v9"/>
  </symbol>

  <symbol id="discovery-search" viewBox="0 0 24 24">
    <circle cx="11" cy="11" r="7"/>
    <path d="M21 21l-4.3-4.3"/>
  </symbol>

  <!-- =========================
       JOB FORENSICS
  ========================== -->

  <symbol id="forensics-timeline" viewBox="0 0 24 24">
    <path d="M4 6h16"/>
    <path d="M4 12h16"/>
    <path d="M4 18h16"/>
    <circle cx="8" cy="6" r="1"/>
    <circle cx="14" cy="12" r="1"/>
    <circle cx="10" cy="18" r="1"/>
  </symbol>

  <symbol id="forensics-clock" viewBox="0 0 24 24">
    <circle cx="12" cy="12" r="9"/>
    <path d="M12 7v5l3 3"/>
  </symbol>

  <!-- =========================
       CONFIGURATION (ADVANCED)
  ========================== -->

  <symbol id="config-sliders" viewBox="0 0 24 24">
    <path d="M4 21v-7M4 10V3"/>
    <circle cx="4" cy="14" r="2"/>
    <path d="M12 21v-9M12 8V3"/>
    <circle cx="12" cy="11" r="2"/>
    <path d="M20 21v-5M20 14V3"/>
    <circle cx="20" cy="16" r="2"/>
  </symbol>

  <symbol id="config-gear" viewBox="0 0 24 24">
    <circle cx="12" cy="12" r="3"/>
    <path d="M19.4 15a1.6 1.6 0 0 0 .3 1.7l.1.1-2 3.4-.1-.1a1.6 1.6 0 0 0-1.8-.7l-.2.1-1.2 2.3h-4l-1.2-2.3-.2-.1a1.6 1.6 0 0 0-1.8.7l-.1.1-2-3.4.1-.1a1.6 1.6 0 0 0 .3-1.7l-.1-.2-2.3-1.2v-4l2.3-1.2.1-.2a1.6 1.6 0 0 0-.3-1.7l-.1-.1 2-3.4.1.1a1.6 1.6 0 0 0 1.8.7l.2-.1 1.2-2.3h4l1.2 2.3.2.1a1.6 1.6 0 0 0 1.8-.7l.1-.1 2 3.4-.1.1a1.6 1.6 0 0 0-.3 1.7l.1.2 2.3 1.2v4l-2.3 1.2z"/>
  </symbol>

  <!-- =========================
       USERS & AUTHENTICATION
  ========================== -->

  <symbol id="user" viewBox="0 0 24 24">
    <circle cx="12" cy="8" r="4"/>
    <path d="M4 21v-2a4 4 0 0 1 4-4h8a4 4 0 0 1 4 4v2"/>
  </symbol>

  <symbol id="users" viewBox="0 0 24 24">
    <circle cx="9" cy="7" r="3"/>
    <path d="M3 21v-2a4 4 0 0 1 4-4h4a4 4 0 0 1 4 4v2"/>
    <circle cx="17" cy="7" r="3"/>
    <path d="M21 21v-2a4 4 0 0 0-3-3.87"/>
  </symbol>

  <symbol id="lock" viewBox="0 0 24 24">
    <rect x="3" y="11" width="18" height="11" rx="2"/>
    <path d="M7 11V7a5 5 0 0 1 10 0v4"/>
  </symbol>

  <symbol id="unlock" viewBox="0 0 24 24">
    <rect x="3" y="11" width="18" height="11" rx="2"/>
    <path d="M7 11V7a5 5 0 0 1 9.9-1"/>
  </symbol>

  <symbol id="key" viewBox="0 0 24 24">
    <path d="M21 2l-2 2m-7.61 7.61a5.5 5.5 0 1 1-7.778 7.778 5.5 5.5 0 0 1 7.777-7.777zm0 0L15.5 7.5m0 0l3 3L22 7l-3-3m-3.5 3.5L19 4"/>
  </symbol>

  <symbol id="shield" viewBox="0 0 24 24">
    <path d="M12 22s8-4 8-10V5l-8-3-8 3v7c0 6 8 10 8 10z"/>
  </symbol>

  <symbol id="logout" viewBox="0 0 24 24">
    <path d="M9 21H5a2 2 0 0 1-2-2V5a2 2 0 0 1 2-2h4"/>
    <polyline points="16 17 21 12 16 7"/>
    <line x1="21" y1="12" x2="9" y2="12"/>
  </symbol>

  <symbol id="login" viewBox="0 0 24 24">
    <path d="M15 3h4a2 2 0 0 1 2 2v14a2 2 0 0 1-2 2h-4"/>
    <polyline points="10 17 15 12 10 7"/>
    <line x1="15" y1="12" x2="3" y2="12"/>
  </symbol>

  <!-- =========================
       ACTIONS
  ========================== -->

  <symbol id="plus" viewBox="0 0 24 24">
    <line x1="12" y1="5" x2="12" y2="19"/>
    <line x1="5" y1="12" x2="19" y2="12"/>
  </symbol>

  <symbol id="edit" viewBox="0 0 24 24">
    <path d="M11 4H4a2 2 0 0 0-2 2v14a2 2 0 0 0 2 2h14a2 2 0 0 0 2-2v-7"/>
    <path d="M18.5 2.5a2.121 2.121 0 0 1 3 3L12 15l-4 1 1-4 9.5-9.5z"/>
  </symbol>

  <symbol id="trash" viewBox="0 0 24 24">
    <polyline points="3 6 5 6 21 6"/>
    <path d="M19 6v14a2 2 0 0 1-2 2H7a2 2 0 0 1-2-2V6m3 0V4a2 2 0 0 1 2-2h4a2 2 0 0 1 2 2v2"/>
    <line x1="10" y1="11" x2="10" y2="17"/>
    <line x1="14" y1="11" x2="14" y2="17"/>
  </symbol>

  <symbol id="copy" viewBox="0 0 24 24">
    <rect x="9" y="9" width="13" height="13" rx="2"/>
    <path d="M5 15H4a2 2 0 0 1-2-2V4a2 2 0 0 1 2-2h9a2 2 0 0 1 2 2v1"/>
  </symbol>

  <symbol id="download" viewBox="0 0 24 24">
    <path d="M21 15v4a2 2 0 0 1-2 2H5a2 2 0 0 1-2-2v-4"/>
    <polyline points="7 10 12 15 17 10"/>
    <line x1="12" y1="15" x2="12" y2="3"/>
  </symbol>

  <symbol id="upload" viewBox="0 0 24 24">
    <path d="M21 15v4a2 2 0 0 1-2 2H5a2 2 0 0 1-2-2v-4"/>
    <polyline points="17 8 12 3 7 8"/>
    <line x1="12" y1="3" x2="12" y2="15"/>
  </symbol>

  <symbol id="refresh" viewBox="0 0 24 24">
    <polyline points="23 4 23 10 17 10"/>
    <polyline points="1 20 1 14 7 14"/>
    <path d="M3.51 9a9 9 0 0 1 14.85-3.36L23 10M1 14l4.64 4.36A9 9 0 0 0 20.49 15"/>
  </symbol>

  <symbol id="share" viewBox="0 0 24 24">
    <circle cx="18" cy="5" r="3"/>
    <circle cx="6" cy="12" r="3"/>
    <circle cx="18" cy="19" r="3"/>
    <line x1="8.59" y1="13.51" x2="15.42" y2="17.49"/>
    <line x1="15.41" y1="6.51" x2="8.59" y2="10.49"/>
  </symbol>

  <symbol id="link" viewBox="0 0 24 24">
    <path d="M10 13a5 5 0 0 0 7.54.54l3-3a5 5 0 0 0-7.07-7.07l-1.72 1.71"/>
    <path d="M14 11a5 5 0 0 0-7.54-.54l-3 3a5 5 0 0 0 7.07 7.07l1.71-1.71"/>
  </symbol>

  <symbol id="external-link" viewBox="0 0 24 24">
    <path d="M18 13v6a2 2 0 0 1-2 2H5a2 2 0 0 1-2-2V8a2 2 0 0 1 2-2h6"/>
    <polyline points="15 3 21 3 21 9"/>
    <line x1="10" y1="14" x2="21" y2="3"/>
  </symbol>

  <symbol id="star" viewBox="0 0 24 24">
    <polygon points="12 2 15.09 8.26 22 9.27 17 14.14 18.18 21.02 12 17.77 5.82 21.02 7 14.14 2 9.27 8.91 8.26 12 2"/>
  </symbol>

  <symbol id="bookmark" viewBox="0 0 24 24">
    <path d="M19 21l-7-5-7 5V5a2 2 0 0 1 2-2h10a2 2 0 0 1 2 2z"/>
  </symbol>

  <!-- =========================
       COMMUNICATION
  ========================== -->

  <symbol id="bell" viewBox="0 0 24 24">
    <path d="M18 8A6 6 0 0 0 6 8c0 7-3 9-3 9h18s-3-2-3-9"/>
    <path d="M13.73 21a2 2 0 0 1-3.46 0"/>
  </symbol>

  <symbol id="mail" viewBox="0 0 24 24">
    <path d="M4 4h16c1.1 0 2 .9 2 2v12c0 1.1-.9 2-2 2H4c-1.1 0-2-.9-2-2V6c0-1.1.9-2 2-2z"/>
    <polyline points="22 6 12 13 2 6"/>
  </symbol>

  <symbol id="message" viewBox="0 0 24 24">
    <path d="M21 15a2 2 0 0 1-2 2H7l-4 4V5a2 2 0 0 1 2-2h14a2 2 0 0 1 2 2z"/>
  </symbol>

  <symbol id="phone" viewBox="0 0 24 24">
    <path d="M22 16.92v3a2 2 0 0 1-2.18 2 19.79 19.79 0 0 1-8.63-3.07 19.5 19.5 0 0 1-6-6 19.79 19.79 0 0 1-3.07-8.67A2 2 0 0 1 4.11 2h3a2 2 0 0 1 2 1.72 12.84 12.84 0 0 0 .7 2.81 2 2 0 0 1-.45 2.11L8.09 9.91a16 16 0 0 0 6 6l1.27-1.27a2 2 0 0 1 2.11-.45 12.84 12.84 0 0 0 2.81.7A2 2 0 0 1 22 16.92z"/>
  </symbol>

  <symbol id="calendar" viewBox="0 0 24 24">
    <rect x="3" y="4" width="18" height="18" rx="2"/>
    <line x1="16" y1="2" x2="16" y2="6"/>
    <line x1="8" y1="2" x2="8" y2="6"/>
    <line x1="3" y1="10" x2="21" y2="10"/>
  </symbol>

  <!-- =========================
       NAVIGATION
  ========================== -->

  <symbol id="home" viewBox="0 0 24 24">
    <path d="M3 9l9-7 9 7v11a2 2 0 0 1-2 2H5a2 2 0 0 1-2-2z"/>
    <polyline points="9 22 9 12 15 12 15 22"/>
  </symbol>

  <symbol id="menu" viewBox="0 0 24 24">
    <line x1="3" y1="12" x2="21" y2="12"/>
    <line x1="3" y1="6" x2="21" y2="6"/>
    <line x1="3" y1="18" x2="21" y2="18"/>
  </symbol>

  <symbol id="x" viewBox="0 0 24 24">
    <line x1="18" y1="6" x2="6" y2="18"/>
    <line x1="6" y1="6" x2="18" y2="18"/>
  </symbol>

  <symbol id="more-horizontal" viewBox="0 0 24 24">
    <circle cx="12" cy="12" r="1"/>
    <circle cx="19" cy="12" r="1"/>
    <circle cx="5" cy="12" r="1"/>
  </symbol>

  <symbol id="more-vertical" viewBox="0 0 24 24">
    <circle cx="12" cy="12" r="1"/>
    <circle cx="12" cy="5" r="1"/>
    <circle cx="12" cy="19" r="1"/>
  </symbol>

  <symbol id="chevron-down" viewBox="0 0 24 24">
    <polyline points="6 9 12 15 18 9"/>
  </symbol>

  <symbol id="chevron-up" viewBox="0 0 24 24">
    <polyline points="18 15 12 9 6 15"/>
  </symbol>

  <symbol id="chevron-right" viewBox="0 0 24 24">
    <polyline points="9 18 15 12 9 6"/>
  </symbol>

  <symbol id="chevron-left" viewBox="0 0 24 24">
    <polyline points="15 18 9 12 15 6"/>
  </symbol>

  <symbol id="arrow-up" viewBox="0 0 24 24">
    <line x1="12" y1="19" x2="12" y2="5"/>
    <polyline points="5 12 12 5 19 12"/>
  </symbol>

  <symbol id="arrow-down" viewBox="0 0 24 24">
    <line x1="12" y1="5" x2="12" y2="19"/>
    <polyline points="19 12 12 19 5 12"/>
  </symbol>

  <symbol id="arrow-left" viewBox="0 0 24 24">
    <line x1="19" y1="12" x2="5" y2="12"/>
    <polyline points="12 19 5 12 12 5"/>
  </symbol>

  <symbol id="arrow-right" viewBox="0 0 24 24">
    <line x1="5" y1="12" x2="19" y2="12"/>
    <polyline points="12 5 19 12 12 19"/>
  </symbol>

  <!-- =========================
       STATUS & FEEDBACK
  ========================== -->

  <symbol id="check" viewBox="0 0 24 24">
    <polyline points="20 6 9 17 4 12"/>
  </symbol>

  <symbol id="check-circle" viewBox="0 0 24 24">
    <circle cx="12" cy="12" r="10"/>
    <polyline points="16 8 10 14 8 12"/>
  </symbol>

  <symbol id="x-circle" viewBox="0 0 24 24">
    <circle cx="12" cy="12" r="10"/>
    <line x1="15" y1="9" x2="9" y2="15"/>
    <line x1="9" y1="9" x2="15" y2="15"/>
  </symbol>

  <symbol id="alert-triangle" viewBox="0 0 24 24">
    <path d="M10.29 3.86L1.82 18a2 2 0 0 0 1.71 3h16.94a2 2 0 0 0 1.71-3L13.71 3.86a2 2 0 0 0-3.42 0z"/>
    <line x1="12" y1="9" x2="12" y2="13"/>
    <line x1="12" y1="17" x2="12.01" y2="17"/>
  </symbol>

  <symbol id="info" viewBox="0 0 24 24">
    <circle cx="12" cy="12" r="10"/>
    <line x1="12" y1="16" x2="12" y2="12"/>
    <line x1="12" y1="8" x2="12.01" y2="8"/>
  </symbol>

  <symbol id="help-circle" viewBox="0 0 24 24">
    <circle cx="12" cy="12" r="10"/>
    <path d="M9.09 9a3 3 0 0 1 5.83 1c0 2-3 3-3 3"/>
    <line x1="12" y1="17" x2="12.01" y2="17"/>
  </symbol>

  <symbol id="alert-circle" viewBox="0 0 24 24">
    <circle cx="12" cy="12" r="10"/>
    <line x1="12" y1="8" x2="12" y2="12"/>
    <line x1="12" y1="16" x2="12.01" y2="16"/>
  </symbol>

  <symbol id="minus" viewBox="0 0 24 24">
    <line x1="5" y1="12" x2="19" y2="12"/>
  </symbol>

  <!-- =========================
       DATA & FILES
  ========================== -->

  <symbol id="file" viewBox="0 0 24 24">
    <path d="M13 2H6a2 2 0 0 0-2 2v16a2 2 0 0 0 2 2h12a2 2 0 0 0 2-2V9z"/>
    <polyline points="13 2 13 9 20 9"/>
  </symbol>

  <symbol id="file-text" viewBox="0 0 24 24">
    <path d="M13 2H6a2 2 0 0 0-2 2v16a2 2 0 0 0 2 2h12a2 2 0 0 0 2-2V9z"/>
    <polyline points="13 2 13 9 20 9"/>
    <line x1="16" y1="13" x2="8" y2="13"/>
    <line x1="16" y1="17" x2="8" y2="17"/>
    <polyline points="10 9 9 9 8 9"/>
  </symbol>

  <symbol id="folder" viewBox="0 0 24 24">
    <path d="M22 19a2 2 0 0 1-2 2H4a2 2 0 0 1-2-2V5a2 2 0 0 1 2-2h5l2 3h9a2 2 0 0 1 2 2z"/>
  </symbol>

  <symbol id="database" viewBox="0 0 24 24">
    <ellipse cx="12" cy="5" rx="9" ry="3"/>
    <path d="M21 12c0 1.66-4 3-9 3s-9-1.34-9-3"/>
    <path d="M3 5v14c0 1.66 4 3 9 3s9-1.34 9-3V5"/>
  </symbol>

  <symbol id="server" viewBox="0 0 24 24">
    <rect x="2" y="2" width="20" height="8" rx="2"/>
    <rect x="2" y="14" width="20" height="8" rx="2"/>
    <line x1="6" y1="6" x2="6.01" y2="6"/>
    <line x1="6" y1="18" x2="6.01" y2="18"/>
  </symbol>

  <symbol id="cloud" viewBox="0 0 24 24">
    <path d="M18 10h-1.26A8 8 0 1 0 9 20h9a5 5 0 0 0 0-10z"/>
  </symbol>

  <symbol id="archive" viewBox="0 0 24 24">
    <polyline points="22 12 16 12 14 15 10 15 8 12 2 12"/>
    <path d="M5.45 5.11L2 12v6a2 2 0 0 0 2 2h16a2 2 0 0 0 2-2v-6l-3.45-6.89A2 2 0 0 0 16.76 4H7.24a2 2 0 0 0-1.79 1.11z"/>
  </symbol>

  <!-- =========================
       VIEW & LAYOUT
  ========================== -->

  <symbol id="grid" viewBox="0 0 24 24">
    <rect x="3" y="3" width="7" height="7"/>
    <rect x="14" y="3" width="7" height="7"/>
    <rect x="14" y="14" width="7" height="7"/>
    <rect x="3" y="14" width="7" height="7"/>
  </symbol>

  <symbol id="list" viewBox="0 0 24 24">
    <line x1="8" y1="6" x2="21" y2="6"/>
    <line x1="8" y1="12" x2="21" y2="12"/>
    <line x1="8" y1="18" x2="21" y2="18"/>
    <line x1="3" y1="6" x2="3.01" y2="6"/>
    <line x1="3" y1="12" x2="3.01" y2="12"/>
    <line x1="3" y1="18" x2="3.01" y2="18"/>
  </symbol>

  <symbol id="eye" viewBox="0 0 24 24">
    <path d="M1 12s4-8 11-8 11 8 11 8-4 8-11 8-11-8-11-8z"/>
    <circle cx="12" cy="12" r="3"/>
  </symbol>

  <symbol id="eye-off" viewBox="0 0 24 24">
    <path d="M17.94 17.94A10.07 10.07 0 0 1 12 20c-7 0-11-8-11-8a18.45 18.45 0 0 1 5.06-5.94M9.9 4.24A9.12 9.12 0 0 1 12 4c7 0 11 8 11 8a18.5 18.5 0 0 1-2.16 3.19m-6.72-1.07a3 3 0 1 1-4.24-4.24"/>
    <line x1="1" y1="1" x2="23" y2="23"/>
  </symbol>

  <symbol id="filter" viewBox="0 0 24 24">
    <polygon points="22 3 2 3 10 12.46 10 19 14 21 14 12.46 22 3"/>
  </symbol>

  <symbol id="expand" viewBox="0 0 24 24">
    <polyline points="15 3 21 3 21 9"/>
    <polyline points="9 21 3 21 3 15"/>
    <line x1="21" y1="3" x2="14" y2="10"/>
    <line x1="3" y1="21" x2="10" y2="14"/>
  </symbol>

  <symbol id="collapse" viewBox="0 0 24 24">
    <polyline points="4 14 10 14 10 20"/>
    <polyline points="20 10 14 10 14 4"/>
    <line x1="14" y1="10" x2="21" y2="3"/>
    <line x1="3" y1="21" x2="10" y2="14"/>
  </symbol>

  <symbol id="sidebar" viewBox="0 0 24 24">
    <rect x="3" y="3" width="18" height="18" rx="2"/>
    <line x1="9" y1="3" x2="9" y2="21"/>
  </symbol>

  <symbol id="layout" viewBox="0 0 24 24">
    <rect x="3" y="3" width="18" height="18" rx="2" ry="2"/>
    <line x1="3" y1="9" x2="21" y2="9"/>
    <line x1="9" y1="21" x2="9" y2="9"/>
  </symbol>

  <!-- =========================
       ANALYTICS & REPORTING
  ========================== -->

  <symbol id="chart-bar" viewBox="0 0 24 24">
    <line x1="12" y1="20" x2="12" y2="10"/>
    <line x1="18" y1="20" x2="18" y2="4"/>
    <line x1="6" y1="20" x2="6" y2="16"/>
  </symbol>

  <symbol id="chart-line" viewBox="0 0 24 24">
    <polyline points="22 12 18 12 15 21 9 3 6 12 2 12"/>
  </symbol>

  <symbol id="chart-pie" viewBox="0 0 24 24">
    <path d="M21.21 15.89A10 10 0 1 1 8 2.83"/>
    <path d="M22 12A10 10 0 0 0 12 2v10z"/>
  </symbol>

  <symbol id="trending-up" viewBox="0 0 24 24">
    <polyline points="23 6 13.5 15.5 8.5 10.5 1 18"/>
    <polyline points="17 6 23 6 23 12"/>
  </symbol>

  <symbol id="trending-down" viewBox="0 0 24 24">
    <polyline points="23 18 13.5 8.5 8.5 13.5 1 6"/>
    <polyline points="17 18 23 18 23 12"/>
  </symbol>

  <symbol id="history" viewBox="0 0 24 24">
    <circle cx="12" cy="12" r="10"/>
    <polyline points="12 6 12 12 16 14"/>
  </symbol>

  <symbol id="globe" viewBox="0 0 24 24">
    <circle cx="12" cy="12" r="10"/>
    <line x1="2" y1="12" x2="22" y2="12"/>
    <path d="M12 2a15.3 15.3 0 0 1 4 10 15.3 15.3 0 0 1-4 10 15.3 15.3 0 0 1-4-10 15.3 15.3 0 0 1 4-10z"/>
  </symbol>

  <symbol id="map-pin" viewBox="0 0 24 24">
    <path d="M21 10c0 7-9 13-9 13s-9-6-9-13a9 9 0 0 1 18 0z"/>
    <circle cx="12" cy="10" r="3"/>
  </symbol>

  <!-- =========================
       CONNECTIVITY
  ========================== -->

  <symbol id="wifi" viewBox="0 0 24 24">
    <path d="M5 12.55a11 11 0 0 1 14.08 0"/>
    <path d="M1.42 9a16 16 0 0 1 21.16 0"/>
    <path d="M8.53 16.11a6 6 0 0 1 6.95 0"/>
    <line x1="12" y1="20" x2="12.01" y2="20"/>
  </symbol>

  <symbol id="wifi-off" viewBox="0 0 24 24">
    <line x1="1" y1="1" x2="23" y2="23"/>
    <path d="M16.72 11.06A10.94 10.94 0 0 1 19 12.55"/>
    <path d="M5 12.55a10.94 10.94 0 0 1 5.17-2.39"/>
    <path d="M10.71 5.05A16 16 0 0 1 22.58 9"/>
    <path d="M1.42 9a15.91 15.91 0 0 1 4.7-2.88"/>
    <path d="M8.53 16.11a6 6 0 0 1 6.95 0"/>
    <line x1="12" y1="20" x2="12.01" y2="20"/>
  </symbol>

  <symbol id="battery" viewBox="0 0 24 24">
    <rect x="1" y="6" width="18" height="12" rx="2"/>
    <line x1="23" y1="13" x2="23" y2="11"/>
  </symbol>

  <symbol id="battery-low" viewBox="0 0 24 24">
    <rect x="1" y="6" width="18" height="12" rx="2"/>
    <line x1="23" y1="13" x2="23" y2="11"/>
    <polyline points="11 10 8 13 11 16"/>
    <line x1="16" y1="13" x2="8" y2="13"/>
  </symbol>

  <symbol id="power" viewBox="0 0 24 24">
    <path d="M18.36 6.64a9 9 0 1 1-12.73 0"/>
    <line x1="12" y1="2" x2="12" y2="12"/>
  </symbol>

  <symbol id="zap" viewBox="0 0 24 24">
    <polygon points="13 2 3 14 12 14 11 22 21 10 12 10 13 2"/>
  </symbol>

  <symbol id="smartphone" viewBox="0 0 24 24">
    <rect x="5" y="2" width="14" height="20" rx="2"/>
    <line x1="12" y1="18" x2="12.01" y2="18"/>
  </symbol>

  <symbol id="monitor" viewBox="0 0 24 24">
    <rect x="2" y="3" width="20" height="14" rx="2"/>
    <line x1="8" y1="21" x2="16" y2="21"/>
    <line x1="12" y1="17" x2="12" y2="21"/>
  </symbol>

</svg>
